<svg fill="#FFA5BA" xmlns="http://www.w3.org/2000/svg" viewBox="0 0 45 51"><path d="m10.075.608.108.488-.006.002-.102-.49Zm-9.267 9.81.488.11-.001.005-.487-.115Zm.02 7.165-.489.106.489-.106Zm6.357 11.516.355-.352-.355.352Zm9.69 6.715.209-.455.003.002-.212.453Zm2.157 1.013.213-.453.287.135v.318h-.5Zm0 13.673v.5h-.5v-.5h.5Zm2.312 0h.5v.5h-.5v-.5Zm0-12.923h-.5v-.667l.64.187-.14.48Zm.578.169-.138.48h-.002l.14-.48Zm1.156 0 .14.48h-.002l-.138-.48Zm.578-.17-.14-.48.64-.186v.667h-.5Zm0 12.924v.5h-.5v-.5h.5Zm2.312 0h.5v.5h-.5v-.5Zm0-13.692h-.5v-.322l.293-.133.207.455Zm2.06-.938.21.454-.002.001-.207-.455Zm9.69-6.677.357.35v.001l-.356-.351ZM44.5 13.83H44v-.001l.5.001ZM36.197.946l-.16.474-.004-.002.164-.472Zm-3.68-.413.005.5-.005-.5Zm-4.238.6-.154-.475.005-.002.15.477ZM23.271 3.74l-.322-.382.004-.004.318.386Zm-.713.6.322.383-.302.254-.317-.234.297-.402Zm-1.04-.768.296-.403-.296.403ZM12.888.514l.016-.5h.004l-.02.5Zm1.579 2.42.09-.492h.001l-.091.492Zm2.485.694.181-.466.009.003-.19.463Zm4.103 2.57-.343.363-.001-.001.344-.362Zm3.025-.113.336.37-.003.003-.333-.373Zm17.684 4.183-.482.13-.001-.003.483-.127Zm.424 2.832-.5.023v-.01l.5-.013Zm-2.6 2.738-.178-.467.178.467Zm-6.936 1.538-.057-.496h.002l.055.496Zm-2.947.77-.299-.402.006-.004.293.405Zm-1.753 9.134-.372-.335.006-.006.006-.006.36.347Zm-2.89-10.204-.365.342-.002-.002.367-.34Zm-3.024-1.65.212-.453.009.004-.221.449Zm-4.354-2.532.3-.4.004.003-.304.397ZM6.742 7.623l-.077.494H6.66l.082-.494Zm-2.139-.375-.218.45-.044-.022-.04-.03.302-.398ZM6.414 4.96l.333.373-.004.003-.329-.376Zm1.676 5.214.117-.486h.004l-.12.486Zm6.203 3.095-.294.403-.003-.002.297-.401Zm2.408 1.763L17 14.63l-.298.402Zm5.048 2.832.192-.461.004.001-.196.46Zm1.676.9-.383.322-.008-.01.39-.312Zm.597 9.135-.452.213.452-.213Zm5.644.9-.362-.345.006-.005.356.35Zm3.16-9.134.044.498h-.003l-.041-.498Zm7.089-1.52.174.47h-.003l-.171-.47Zm1.83-.544-.349.359-.035-.035-.028-.041.412-.283Zm-2.08 5.308-.432-.252.002-.003.43.255Zm-4.45 5.534.341.364-.341-.364Zm-11.212 6.583-.165-.472.003-.001.162.473Zm-1.503.525.165.472-.166.058-.166-.058.167-.472Zm-1.483-.525.16-.474.007.003-.167.471Zm-11.54-6.94.347-.36h.001l-.348.36ZM2.85 15.351l-.497.053.497-.053Zm.54-5.627.431.253-.004.006-.427-.26Zm6.787-8.626c-4.347.91-7.762 4.49-8.881 9.43l-.975-.22C1.513 5.043 5.187 1.12 9.972.117l.205.98Zm-8.882 9.435c-.199.836-.3 2.094-.295 3.402.005 1.305.115 2.613.316 3.541l-.977.213C.117 16.667.005 15.283 0 13.939c-.005-1.342.097-2.69.322-3.637l.973.231Zm.021 6.943c.923 4.236 2.975 7.997 6.224 11.27l-.71.705C3.452 26.048 1.304 22.118.34 17.69l.976-.213ZM7.54 28.748c2.923 2.956 5.473 4.741 9.544 6.611l-.418.91c-4.175-1.92-6.826-3.773-9.837-6.818l.711-.703Zm9.547 6.613 2.158 1.013-.425.905-2.158-1.013.425-.905Zm2.445 1.466v6.827h-1v-6.827h1Zm0 6.827V50.5h-1v-6.846h1Zm-.5 6.346h1.156v1h-1.156v-1Zm1.156 0h1.156v1h-1.156v-1Zm.656.5v-6.452h1V50.5h-1Zm0-6.452v-6.471h1v6.47h-1Zm.64-6.951.578.169-.28.96-.578-.17.28-.96Zm.576.168c.237.068.643.068.88 0l.276.961a2.9 2.9 0 0 1-1.432 0l.276-.961Zm.878 0 .578-.168.28.96-.578.169-.28-.96Zm1.218.312v6.47h-1v-6.47h1Zm0 6.47V50.5h-1v-6.452h1Zm-.5 5.953h1.156v1h-1.156v-1Zm1.156 0h1.156v1h-1.156v-1Zm.656.5v-6.846h1V50.5h-1Zm0-6.846v-6.846h1v6.846h-1Zm.293-7.301 2.06-.938.415.91-2.061.938-.414-.91Zm2.059-.937c3.938-1.816 6.777-3.77 9.543-6.574l.712.702c-2.86 2.898-5.8 4.92-9.837 6.78l-.418-.908Zm9.543-6.574C41.773 24.363 44 19.308 44 13.832h1c0 5.776-2.358 11.075-6.925 15.712l-.712-.702ZM44 13.83c.019-5.997-3.118-10.784-7.962-12.41l.318-.948C41.683 2.26 45.02 7.488 45 13.832l-1-.002ZM36.033 1.418c-.996-.346-1.485-.403-3.51-.385l-.01-1C34.57.014 35.2.07 36.36.473l-.328.945Zm-3.511-.385c-1.07.01-1.695.033-2.248.112-.548.079-1.04.214-1.845.466L28.13.656c.813-.254 1.37-.41 2.003-.5.626-.09 1.311-.113 2.38-.123l.009 1Zm-4.088.576c-1.862.604-3.672 1.553-4.846 2.518l-.635-.773c1.292-1.06 3.22-2.063 5.172-2.696l.309.95Zm-4.841 2.514-.713.6-.644-.765.713-.6.644.765Zm-1.332.62-1.04-.77.594-.803 1.04.769-.594.804Zm-1.04-.769c-2.598-1.91-5.238-2.833-8.354-2.96l.04-1c3.319.136 6.15 1.127 8.907 3.155l-.593.805Zm-8.35-2.96a25.864 25.864 0 0 0-1.634-.002c-.515.016-.894.049-1.054.084L9.967.12c.263-.058.732-.091 1.238-.108.521-.016 1.13-.016 1.699.003l-.034 1Zm1.687 1.428c.839.156 1.967.483 2.575.72l-.363.932a15.998 15.998 0 0 0-2.394-.668l.182-.984Zm2.584.723c.653.269 1.504.735 2.286 1.226.779.488 1.53 1.025 1.972 1.444l-.69.725c-.367-.35-1.05-.844-1.813-1.322-.76-.476-1.556-.91-2.135-1.148l.38-.925Zm4.256 2.669c.31.293.537.484.723.6.178.111.284.132.362.13.086-.004.213-.04.428-.178.217-.14.48-.356.835-.674l.667.746c-.358.32-.672.583-.96.77-.29.186-.595.321-.931.334-.343.014-.648-.103-.932-.28-.275-.173-.562-.423-.878-.72l.686-.728Zm2.346-.12c2.326-2.108 6.048-3.543 9.14-3.543v1c-2.842 0-6.325 1.342-8.468 3.284l-.672-.74Zm9.14-3.543c4.295 0 8.142 3.348 9.364 7.969l-.967.255c-1.129-4.269-4.64-7.224-8.397-7.224v-1Zm9.363 7.967c.222.823.42 2.137.441 2.95l-1 .024c-.018-.726-.204-1.962-.406-2.714l.965-.26Zm.44 2.94c.02.41.034.778-.009 1.09a1.56 1.56 0 0 1-.416.906c-.234.246-.556.43-.943.609-.392.18-.904.376-1.554.623l-.355-.935a25.51 25.51 0 0 0 1.491-.597c.358-.165.537-.286.636-.39.08-.083.126-.174.15-.352.029-.204.022-.475.002-.91l.999-.045Zm-2.922 3.228c-2.17.825-3.985 1.226-7.058 1.567l-.11-.994c3.015-.334 4.744-.72 6.813-1.508l.355.935Zm-7.055 1.567c-.978.113-1.53.194-1.91.294a2.13 2.13 0 0 0-.802.384l-.586-.811c.34-.246.646-.412 1.134-.54.459-.12 1.081-.208 2.049-.32l.115.993Zm-2.706.673c-.292.218-.493.4-.644.598a2.07 2.07 0 0 0-.347.75c-.182.687-.234 1.743-.234 3.672h-1c0-1.898.045-3.092.268-3.929.115-.434.28-.786.517-1.097.232-.307.518-.554.842-.796l.598.802Zm-1.225 5.02c0 1.427-.009 2.305-.057 2.863-.047.552-.139.916-.41 1.197l-.72-.693c.017-.018.09-.077.134-.59.043-.506.053-1.335.053-2.777h1Zm-.455 4.048c-.63.701-1.676.614-2.32-.014l.698-.716c.319.31.7.26.878.061l.744.669Zm-2.32-.014a1.323 1.323 0 0 1-.33-.48c-.08-.202-.123-.445-.15-.751-.052-.612-.056-1.653-.056-3.535h1c0 1.907.005 2.892.053 3.448.024.277.056.404.082.47.018.044.035.07.099.132l-.698.716Zm-.536-4.766c0-2.112-.03-3.298-.15-4.06-.06-.372-.137-.62-.23-.814a2.145 2.145 0 0 0-.39-.542l.73-.683c.218.233.408.477.559.788.15.308.25.659.318 1.095.135.856.163 2.127.163 4.216h-1Zm-.773-5.418c.019.02.019.015-.036-.023a3.908 3.908 0 0 0-.193-.123c-.166-.1-.392-.228-.663-.376a60.623 60.623 0 0 0-1.986-1.02l.442-.897c.745.368 1.464.737 2.02 1.038.278.151.52.287.705.4.092.055.175.108.244.155.059.041.14.1.201.167l-.734.679Zm-2.87-1.538c-1.695-.797-3.406-1.79-4.446-2.588l.61-.793c.963.74 2.604 1.697 4.261 2.476l-.425.905Zm-4.44-2.584c-2.413-1.806-4.125-2.945-5.714-3.71-1.579-.761-3.055-1.163-5.006-1.467l.154-.988c2.017.315 3.594.739 5.286 1.553 1.68.81 3.456 1.997 5.879 3.811l-.6.8ZM6.66 8.116a157.862 157.862 0 0 1-1.959-.337 7.477 7.477 0 0 1-.232-.05.335.335 0 0 1-.084-.032l.437-.899c-.056-.027-.108-.037-.082-.03l.023.004.124.025.46.083c.386.067.91.156 1.476.25l-.163.986Zm-2.358-.47a.551.551 0 0 1-.215-.388.68.68 0 0 1 .023-.243c.03-.11.084-.22.135-.31.106-.188.267-.415.452-.65a11.66 11.66 0 0 1 1.388-1.472l.658.753c-.445.39-.92.905-1.26 1.337a4.5 4.5 0 0 0-.367.523c-.037.066-.043.09-.04.08 0-.003.013-.047.007-.115a.45.45 0 0 0-.178-.312l-.603.798Zm1.78-3.06c2.364-2.103 5.068-2.768 8.475-2.144l-.18.984c-3.144-.576-5.525.034-7.63 1.907l-.665-.747ZM8.211 9.69c2.043.507 4.317 1.648 6.38 3.178l-.595.803c-1.983-1.47-4.14-2.543-6.026-3.01l.24-.971Zm6.377 3.176c.847.618 1.928 1.407 2.41 1.765l-.594.804c-.48-.355-1.557-1.142-2.405-1.762l.59-.807ZM17 14.63c1.256.93 3.358 2.112 4.942 2.773l-.385.922c-1.652-.689-3.826-1.909-5.152-2.892L17 14.63Zm4.946 2.774c.406.173.804.362 1.123.532.158.085.303.168.421.244.1.065.236.16.326.272l-.78.624c.022.029.014.01-.09-.057a4.934 4.934 0 0 0-.348-.2c-.288-.154-.66-.33-1.045-.495l.393-.92Zm1.863 1.039c.084.1.128.215.153.296.029.09.05.19.067.296.034.212.058.492.077.843.037.703.05 1.747.05 3.219h-1c0-1.472-.014-2.492-.049-3.167a7.437 7.437 0 0 0-.066-.737 1.167 1.167 0 0 0-.033-.154c-.01-.035-.006-.002.035.047l.766-.643Zm.348 4.654c0 1.777.015 2.793.066 3.445.05.632.13.884.253 1.144l-.906.425c-.186-.396-.288-.773-.344-1.49-.055-.7-.07-1.756-.07-3.524h1Zm.318 4.589c.286.606.64 1.015 1.07 1.277.432.264.98.405 1.695.405v1c-.846 0-1.588-.168-2.216-.552-.63-.384-1.103-.96-1.453-1.704l.904-.426Zm2.765 1.682c.45 0 .801-.067 1.114-.204.314-.138.618-.36.951-.71l.725.69c-.399.418-.808.731-1.274.936-.468.205-.963.288-1.516.288v-1Zm2.07-.92c.194-.196.32-.351.415-.52a2.11 2.11 0 0 0 .224-.67c.117-.63.143-1.604.143-3.41h1c0 1.775-.022 2.854-.16 3.594a3.106 3.106 0 0 1-.335.975c-.156.28-.352.507-.573.732l-.713-.7Zm.782-4.6c0-1.01-.003-1.787.03-2.373.032-.572.1-1.049.294-1.41.22-.414.567-.617.976-.724.37-.097.85-.13 1.394-.175l.082.997c-.593.049-.96.077-1.223.146-.223.058-.294.126-.347.227-.081.151-.146.43-.177.995-.031.55-.029 1.29-.029 2.316h-1Zm2.69-4.681c2.274-.203 5.101-.814 6.963-1.492l.342.94c-1.953.71-4.866 1.338-7.216 1.548l-.089-.996Zm6.96-1.49c.49-.182.948-.335 1.294-.438.17-.05.323-.091.441-.116.056-.012.122-.023.184-.028a.66.66 0 0 1 .14.004.513.513 0 0 1 .357.22l-.824.565a.487.487 0 0 0 .324.205c.043.006.072.004.073.004.006 0-.007 0-.05.009-.078.016-.2.048-.361.096-.32.095-.757.24-1.23.416l-.347-.938Zm2.353-.434a.56.56 0 0 1 .15.26.708.708 0 0 1 .022.165c.002.085-.01.171-.022.246a4.81 4.81 0 0 1-.136.547c-.125.414-.318.952-.54 1.52-.444 1.13-1.029 2.436-1.474 3.184l-.86-.511c.403-.677.965-1.922 1.403-3.038.218-.556.4-1.065.513-1.442.057-.192.093-.335.108-.427.009-.049.008-.064.008-.057 0 .004 0 .03.01.069a.44.44 0 0 0 .12.2l.698-.716Zm-1.998 5.919c-1.374 2.35-2.464 3.701-4.54 5.645l-.683-.73c2.009-1.881 3.037-3.157 4.36-5.42l.863.505Zm-4.54 5.646c-3.023 2.829-7.17 5.245-11.391 6.691l-.324-.946c4.101-1.405 8.122-3.753 11.032-6.476l.683.73Zm-11.388 6.69-1.503.525-.33-.944 1.503-.525.33.944Zm-1.835.525-1.483-.526.334-.942 1.483.525-.334.943Zm-1.476-.523c-4.517-1.523-8.512-3.943-11.727-7.055l.695-.718c3.104 3.003 6.969 5.347 11.351 6.825l-.32.948ZM9.13 28.447c-4.08-3.915-6.243-8.09-6.778-13.043l.995-.107c.505 4.688 2.542 8.654 6.476 12.428l-.693.722ZM2.353 15.404c-.1-.945-.074-2.205.031-3.315a14.82 14.82 0 0 1 .218-1.531c.087-.424.2-.83.36-1.093l.855.518c-.062.102-.15.357-.236.776-.081.399-.15.892-.202 1.425-.101 1.07-.123 2.258-.031 3.113l-.995.107ZM2.96 9.47a.614.614 0 0 1 .295-.251 1.04 1.04 0 0 1 .221-.062c.133-.024.292-.033.456-.035.334-.004.77.021 1.244.068.95.093 2.11.275 3.032.497l-.234.972a22.86 22.86 0 0 0-2.896-.474 11.026 11.026 0 0 0-1.133-.063c-.144.001-.24.01-.294.02-.028.004-.026.006-.007-.001.005-.003.106-.042.178-.165L2.96 9.47Z"/><path d="M10.075.608c-4.566.957-8.11 4.708-9.267 9.81-.423 1.782-.404 5.214.02 7.165.944 4.332 3.043 8.177 6.357 11.516 2.967 3.001 5.567 4.82 9.69 6.715l2.157 1.013V50.5h2.312V37.577l.578.169a2.41 2.41 0 0 0 1.156 0l.578-.17V50.5h2.312V36.808l2.06-.938c3.989-1.838 6.878-3.826 9.69-6.677 4.49-4.558 6.782-9.735 6.782-15.362.02-6.17-3.217-11.178-8.303-12.885C35.118.57 34.56.514 32.517.533c-2.138.019-2.62.094-4.238.6-1.907.62-3.775 1.595-5.008 2.607l-.713.6-1.04-.768C18.84 1.602 16.104.646 12.888.514c-1.118-.037-2.39 0-2.813.094Zm4.392 2.326c.809.15 1.907.469 2.485.694 1.233.506 3.294 1.8 4.103 2.57 1.252 1.181 1.6 1.162 3.025-.113 2.234-2.026 5.837-3.414 8.804-3.414 4.026 0 7.705 3.151 8.88 7.597.212.787.405 2.063.424 2.832.077 1.688.02 1.744-2.6 2.738-2.12.807-3.892 1.2-6.936 1.538-1.945.225-2.35.338-2.947.77-1.233.918-1.426 1.594-1.426 5.42 0 2.87-.038 3.414-.327 3.714-.405.45-1.117.431-1.6-.038-.365-.356-.384-.619-.384-4.408 0-4.201-.116-4.914-.906-5.758-.173-.187-1.541-.919-3.024-1.65-1.676-.788-3.352-1.763-4.354-2.532-4.835-3.62-6.974-4.652-10.942-5.271-1.137-.188-2.1-.356-2.139-.375-.173-.131.867-1.463 1.811-2.288 2.235-1.989 4.778-2.626 8.053-2.026Zm-6.377 7.24c1.965.488 4.18 1.594 6.203 3.095.848.619 1.927 1.406 2.408 1.763 1.291.956 3.43 2.157 5.048 2.832.79.338 1.54.731 1.676.9.173.207.23 1.388.23 4.333 0 3.545.059 4.145.367 4.802.636 1.35 1.657 1.969 3.217 1.969 1.002 0 1.695-.3 2.427-1.07.829-.843.925-1.368.925-4.95 0-4.07-.038-3.996 2.235-4.183 2.311-.207 5.182-.826 7.089-1.52.963-.356 1.792-.6 1.83-.544.212.207-1.233 3.883-2.08 5.308-1.349 2.307-2.408 3.62-4.45 5.534-2.967 2.775-7.051 5.158-11.212 6.583l-1.503.525-1.483-.525c-4.45-1.5-8.38-3.883-11.54-6.94-4.007-3.845-6.106-7.915-6.627-12.735-.192-1.801.097-4.896.54-5.627.154-.263 2.909.018 4.7.45Z"/></svg>