<svg version="1.0" xmlns="http://www.w3.org/2000/svg" width="682.667" height="682.667" viewBox="0 0 512 512"><path d="M233.5.6c-1.6.2-7 .9-12 1.5-25.3 3.2-56 13.7-86.8 29.6C73.6 63.5 28.8 117.3 10.5 181.2c-16 55.6-13.5 117.2 7.1 170.6 21 54.6 62.1 100.6 113.1 126.4 15.7 8 27.8 11.7 32.6 9.9 5.2-2 2.8-9.1-6.1-18.4-2.1-2.1-9-8.1-15.4-13.3-29.2-23.7-33.1-31.7-34.8-71.4-1.4-33.1-4.6-44.9-15.6-57.2-11.1-12.2-15.1-24-14.2-41.1.7-12.5 3.3-18.8 11-27.3 9.6-10.7 14.7-24.3 16.8-45.2 1.8-18 5.5-30.5 13.8-46.6 20.4-39.7 63.1-72.1 109.2-82.7 11.1-2.6 33.6-3.5 45.3-2 33.9 4.5 66.8 21.4 93.2 47.6 12.4 12.5 20.2 22.8 27.6 36.9 8.5 16.1 11.6 27.2 14.9 52.9 1.1 9.3 4.9 22.6 8.1 29 1.1 2 4.6 6.7 7.9 10.2 7.9 8.8 10.2 14.8 10.8 28.5.7 16.8-3 27.6-13.1 38.7-6.4 7.1-7.8 9.2-10.5 16.4-3.8 10.3-5.4 20.8-6.3 42.9-.5 11.8-1.5 24.5-2.3 28.3-3.2 14.3-10.1 23.4-32.2 41.8-7.8 6.5-16 14.1-18.3 16.8-14.2 17-3.7 20.2 22.4 6.8 66.1-33.9 117.7-109.1 131.2-191.2 2.5-15.3 2.5-49.5-.1-65-6.3-38.7-18.6-70.3-39.6-101.8-11.9-17.8-20.1-27.8-35-42.7-41.1-41.1-89.1-66.3-144.7-76.1C276 .9 241.7-.6 233.5.6z"/><path d="M245.5 114.1c-14.2 2.9-32.9 9.4-47.5 16.5-19.5 9.5-29 16.7-29 22.2 0 7.4 30.6 21.6 61 28.4 8.6 1.9 13.4 2.3 26.5 2.3s17.9-.4 26.5-2.3c31.3-7 61-21 61-28.7 0-3-7.7-10.1-16.9-15.4-19.4-11.4-49.8-22.1-69.1-24.4-1.9-.3-7.5.4-12.5 1.4zM145.8 190.6c-5.2 1.5-9.9 31.3-6.8 42.6 3.1 11.2 17.4 12.7 117.5 12.7 80.4 0 102.4-1.1 111.5-5.7 6.1-3.2 7.2-6.7 6.7-22.2-.3-11.3-.7-14.4-2.6-18.7-5.2-11.8-13.1-11.7-39.1.3-22.8 10.5-41.3 13.9-76.5 13.9-34.8 0-53-3.2-75.2-13.4-16.2-7.4-30-11.1-35.5-9.5zM132.8 279c-5.3.5-11.4 1.4-13.6 2-6.7 1.7-10.6 8.1-8.6 13.5 1 2.4 9 6.1 17.4 7.9 16.1 3.5 25.7 3.9 95 4.5l69.5.6.6 27c.6 28 1.4 33.5 5.6 40.8 2.6 4.3 6 4.3 8.9-.1 3.4-4.9 4.4-10.9 5.4-31.3.4-10.2 1.3-20.4 1.9-22.7 1.6-5.7 5.3-9.7 10.7-11.6 4.5-1.5 8.1-2.1 33.5-5.1 14.9-1.7 29.1-5.6 33.8-9.2l3.4-2.6-2.1-1.8c-4.7-3.8-39.1-7.4-103.2-11-24.7-1.3-145.3-2-158.2-.9z"/><path d="M138.3 365.7c.5 30 1.3 35.5 6.4 45.9 2.9 6.1 10.9 14.1 16.9 17.2 6.8 3.5 19.8 7 31.5 8.7 19.5 2.7 59.7 3.9 89.8 2.6 47.3-2 64.8-6.1 77.6-18.2 9.9-9.3 13.4-19.8 14.2-42.5.9-22.6-2-35.2-8.9-39.4-6.8-4.1-14.5-1.2-18.6 7.2-1.8 3.5-2.5 7.3-3.2 16-1.6 21.8-8.7 33.6-25 41.2-5.5 2.6-7.9 3.1-16.3 3.4-12.2.5-21-2-29.7-8.4-10.4-7.6-15.9-18.3-20.5-39.6-1.8-8.6-4.4-13.2-9.3-16.5-6.3-4.2-10.5-4.6-59.1-5l-46.3-.5.5 27.9zM226.8 472c-12.5 1-20.7 3.1-23.4 6.1-2.6 2.9-2.3 10.5.6 15.8 4.1 7.2 13 12.1 28.5 15.7 12.1 2.8 38.7 2.6 51-.4 19.4-4.9 29.5-12.6 29.5-22.6 0-7.1-6.3-11.2-21-13.6-8.7-1.4-51.9-2.1-65.2-1z"/></svg>