<svg aria-hidden="true" style="position:absolute;width:0;height:0;overflow:hidden" xmlns="http://www.w3.org/2000/svg">
  <defs>
    <symbol id="quotes" viewBox="0 0 43 32">
      <path d="M32.014 0c1.928 0 3.75.52 5.464 1.561s3.107 2.537 4.178 4.488c1.029 1.951 1.543 4.25 1.543 6.894s-.643 5.225-1.928 7.74c-.429.91-1.2 2.081-2.315 3.512a63.65 63.65 0 0 1-3.214 3.707L31.692 32l-2.893-4.813a22.225 22.225 0 0 0 5.306-4.646l.03-.037c1.542-1.821 2.314-3.49 2.314-5.008 0-.781-.171-1.41-.514-1.886a8.361 8.361 0 0 1-5.014 1.626c-1.328 0-2.593-.412-3.793-1.236a8.638 8.638 0 0 1-2.935-3.078l-.022-.043c-.771-1.258-1.157-2.558-1.157-3.902 0-1.518.45-2.97 1.35-4.358a10.313 10.313 0 0 1 3.364-3.356l.044-.025C29.142.414 30.556.002 32.014.002zM8.936 0c1.928 0 3.75.52 5.464 1.561s3.107 2.536 4.178 4.488c1.029 1.951 1.543 4.25 1.543 6.894 0 1.864-.236 3.534-.707 5.008-.472 1.518-1.286 3.1-2.443 4.748-1.114 1.561-2.164 2.862-3.15 3.902-.986 1.084-2.7 2.883-5.143 5.398l-2.893-4.813a22.225 22.225 0 0 0 5.306-4.646l.03-.037c1.542-1.821 2.314-3.49 2.314-5.008 0-.781-.172-1.41-.514-1.886a8.361 8.361 0 0 1-5.014 1.626c-1.328 0-2.593-.412-3.793-1.236a8.638 8.638 0 0 1-2.935-3.078l-.022-.043C.386 11.62 0 10.32 0 8.976c0-1.518.429-2.97 1.286-4.358A10.313 10.313 0 0 1 4.65 1.262l.045-.025C6.065.413 7.479.001 8.937.001z"/>
    </symbol>
    <symbol id="advantage-03" viewBox="0 0 28 32">
      <path d="m6.322.382.068.306-.004.001-.064-.307zM.507 6.537l.306.069-.001.003-.306-.072zm.013 4.495zm3.988 7.226zm6.08 4.214.131-.285.002.001-.133.284zm1.354.635.134-.284.18.085v.2h-.314zm0 8.579V32h-.314v-.314h.314zm1.45 0h.314V32h-.314v-.314zm0-8.108h-.314v-.419l.402.117-.088.301zm.363.106-.087.301h-.001l.088-.301zm.725 0 .088.301h-.001l-.087-.301zm.363-.107-.088-.301.402-.117v.419h-.314zm0 8.109V32h-.314v-.314h.314zm1.451 0h.314V32h-.314v-.314zm0-8.591h-.314v-.202l.184-.083.13.285zm1.292-.588.132.285-.001.001-.13-.285zm6.08-4.19.224.22v.001l-.223-.22zm4.256-9.639h-.314v-.001l.314.001zM22.712.594l-.1.297-.003-.001.103-.296zm-2.309-.26zm-2.659.377-.097-.298.003-.001.094.299zm-3.143 1.636-.202-.24.002-.002.2.242zm-.447.376.202.24-.19.159-.199-.147.186-.252zm-.652-.482zM8.087.323l.01-.314h.002l-.013.314zm.99 1.518.056-.309h.001l-.057.309zm1.56.435.114-.292.006.002-.119.29zm2.574 1.613-.215.228-.001-.001.216-.227zm1.898-.071.211.232-.002.002-.209-.234zm11.096 2.625-.302.082-.001-.002.303-.08zm.266 1.777-.314.014v-.006l.314-.008zM24.84 9.938zm-4.352.965-.036-.311h.001l.035.311zm-1.85.483-.188-.252.004-.002.184.254zm-1.1 5.731-.233-.21.008-.008.226.218zm-1.813-6.403-.229.215-.001-.001.23-.213zm-1.897-1.035.133-.284.006.002-.139.282zM11.096 8.09l.188-.251.002.002-.191.249zM4.23 4.783l-.048.31h-.003l.051-.31zm-1.342-.235-.137.282-.028-.014-.025-.019.19-.25zm1.136-1.436.209.234-.003.002-.206-.236zm1.052 3.272.073-.305h.003l-.075.305zm3.892 1.942-.184.253-.002-.001.186-.252zm1.511 1.106.188-.252-.187.252zm3.167 1.777.12-.289.002.001-.123.289zm1.052.565-.24.202-.005-.006.245-.196zm.375 5.731zm3.541.565-.227-.216.004-.003.223.22zm1.983-5.731.028.312h-.002l-.026-.312zm4.448-.954.109.295h-.002l-.107-.295zm1.148-.341-.219.225-.022-.022-.018-.026.259-.178zm-1.305 3.33-.271-.158.001-.002.27.16zm-2.792 3.473zm-7.035 4.13-.104-.296.002-.001.102.297zm-.943.329.104.296-.104.036-.104-.036.105-.296zm-.931-.329.1-.297.004.002-.105.296zm-7.241-4.354.218-.226h.001l-.218.226zM1.788 9.632zm.339-3.531.27.159-.002.004-.268-.163zM6.386.689C3.658 1.26 1.516 3.506.814 6.606l-.612-.138C.95 3.164 3.255.703 6.258.074l.129.615zM.813 6.609C.688 7.134.625 7.923.628 8.744c.003.819.072 1.64.198 2.222l-.613.134C.074 10.459.003 9.59 0 8.747c-.003-.842.061-1.688.202-2.282l.611.145zm.013 4.356c.579 2.658 1.867 5.018 3.905 7.071l-.446.442C2.165 16.343.818 13.877.213 11.099l.612-.134zm3.905 7.073c1.834 1.855 3.434 2.975 5.988 4.148l-.262.571c-2.62-1.205-4.283-2.367-6.172-4.278l.446-.441zm5.99 4.149 1.354.636-.267.568-1.354-.636.267-.568zm1.534.92v4.284h-.627v-4.284h.627zm0 4.284v4.296h-.627v-4.296h.627zm-.313 3.982h.725V32h-.725v-.627zm.725 0h.725V32h-.725v-.627zm.412.313v-4.048h.627v4.048h-.627zm0-4.048v-4.06h.627v4.06h-.627zm.401-4.361.363.106-.176.602-.363-.107.176-.602zm.362.105c.149.043.403.043.552 0l.173.603a1.857 1.857 0 0 1-.911-.003l.013.003.173-.603zm.55 0 .363-.105.176.602-.363.106-.176-.602zm.765.196v4.06h-.627v-4.06h.627zm0 4.059v4.049h-.627v-4.048h.627zm-.314 3.736h.725V32h-.725v-.627zm.725 0h.725V32h-.725v-.627zm.412.313V27.39h.627v4.296h-.627zm0-4.295v-4.296h.627v4.296h-.627zm.184-4.581 1.293-.589.26.571-1.293.589-.26-.571zm1.292-.588c2.471-1.139 4.252-2.366 5.988-4.125l.447.44c-1.794 1.818-3.639 3.087-6.172 4.254l-.262-.57zm5.987-4.125c2.767-2.81 4.164-5.982 4.164-9.418h.627c0 3.624-1.48 6.949-4.345 9.858l-.447-.44zm4.165-9.419c.012-3.763-1.956-6.766-4.996-7.787l.2-.595c3.342 1.122 5.436 4.402 5.424 8.383l-.627-.001zM22.609.89c-.625-.217-.932-.253-2.202-.242l-.006-.627c1.291-.012 1.686.023 2.414.276l-.206.593zM20.406.648c-.671.006-1.064.021-1.41.07-.344.05-.653.134-1.158.292L17.65.411c.51-.159.86-.257 1.257-.314C19.3.041 19.73.026 20.4.02l.006.627zm-2.565.362c-1.168.379-2.304.974-3.041 1.58l-.398-.485c.811-.665 2.02-1.294 3.245-1.692l.194.596zm-3.038 1.577-.447.376-.404-.48.447-.376.404.48zm-.835.389-.653-.483.373-.504.653.482-.373.504zm-.653-.482C11.685 1.296 10.028.716 8.073.637L8.098.01c2.082.085 3.859.707 5.589 1.98l-.372.505zM8.076.636a14.558 14.558 0 0 0-1.05-.001l.025-.001a4.62 4.62 0 0 0-.661.053L6.254.075a5.2 5.2 0 0 1 .777-.068c.327-.01.709-.01 1.066.002l-.021.627zm1.058.896a10.66 10.66 0 0 1 1.616.452l-.228.585a9.333 9.333 0 0 0-1.438-.408L9.02 2.15l.114-.617zm1.622.454c.41.169.944.461 1.434.769.489.306.96.643 1.237.906l-.433.455c-.23-.22-.659-.53-1.138-.829-.477-.299-.976-.571-1.34-.72l.238-.58zm2.67 1.675c.194.184.337.304.454.376.112.07.178.083.227.082.054-.003.134-.025.269-.112.136-.088.301-.223.524-.423l.418.468a5.284 5.284 0 0 1-.602.483 1.173 1.173 0 0 1-.584.21 1.014 1.014 0 0 1-.585-.176 3.797 3.797 0 0 1-.551-.452l.43-.457zm1.472-.076c1.459-1.323 3.795-2.223 5.735-2.223v.627c-1.783 0-3.969.842-5.313 2.061l-.422-.464zm5.735-2.223c2.695 0 5.109 2.101 5.875 5l-.607.16c-.708-2.679-2.911-4.533-5.269-4.533v-.627zm5.875 4.999a9.46 9.46 0 0 1 .277 1.851l-.627.015a8.817 8.817 0 0 0-.255-1.703l.605-.163zm.276 1.845c.013.257.021.488-.006.684a.98.98 0 0 1-.261.569c-.147.154-.349.27-.592.382-.246.113-.567.236-.975.391l-.223-.587c.414-.157.713-.272.936-.375.225-.104.337-.179.399-.245.05-.052.079-.109.094-.221.018-.128.014-.298.001-.571l.627-.028zm-1.833 2.025c-1.362.518-2.5.769-4.429.983l-.069-.624c1.892-.21 2.977-.452 4.275-.946l.223.587zm-4.427.983c-.614.071-.96.122-1.198.184a1.33 1.33 0 0 0-.503.241l-.368-.509c.213-.154.405-.258.712-.339.288-.075.678-.13 1.286-.201l.072.623zm-1.698.423a2.002 2.002 0 0 0-.404.375 1.299 1.299 0 0 0-.218.471c-.114.431-.147 1.094-.147 2.304h-.627c0-1.191.028-1.94.168-2.465.072-.272.176-.493.324-.688.146-.193.325-.348.528-.499l.375.503zm-.769 3.15c0 .895-.006 1.446-.036 1.796-.029.346-.087.575-.257.751l-.452-.435c.011-.011.056-.048.084-.37.027-.317.033-.838.033-1.742h.627zm-.285 2.539c-.395.44-1.052.385-1.456-.009l.438-.449c.2.195.439.163.551.038l.467.42zm-1.456-.008a.825.825 0 0 1-.205-.296l-.002-.006a1.7 1.7 0 0 1-.094-.471c-.033-.384-.035-1.037-.035-2.218h.627c0 1.197.003 1.815.033 2.163.015.174.035.253.051.295a.21.21 0 0 0 .062.083l-.438.449zm-.336-2.991c0-1.325-.019-2.069-.094-2.547a1.874 1.874 0 0 0-.144-.511 1.332 1.332 0 0 0-.245-.34l.458-.429c.137.146.256.299.351.494.094.193.157.414.2.687.085.537.102 1.335.102 2.645h-.627zm-.485-3.399c.012.013.012.009-.023-.014a1.963 1.963 0 0 0-.11-.071l-.011-.006a11.63 11.63 0 0 0-.416-.236 20.261 20.261 0 0 0-1.026-.54l-.22-.1.277-.563c.467.231.919.462 1.267.651.174.095.326.18.442.251.058.034.11.068.153.097a.77.77 0 0 1 .126.105l-.461.426zm-1.801-.965c-1.064-.5-2.137-1.123-2.79-1.624l.383-.498c.604.464 1.634 1.065 2.674 1.554l-.267.568zm-2.786-1.622C9.394 7.208 8.32 6.493 7.323 6.013c-.991-.478-1.917-.73-3.141-.92l.097-.62c1.266.198 2.255.464 3.317.974 1.054.508 2.168 1.253 3.689 2.391l-.376.502zM4.179 5.092a57.217 57.217 0 0 1-1.837-.304l.608.093a3.07 3.07 0 0 1-.178-.038l.032.006a.216.216 0 0 1-.053-.02l.274-.564c-.035-.017-.068-.023-.051-.019l.014.003.078.016.289.052c.242.042.571.098.926.157l-.102.619zm-1.48-.294a.35.35 0 0 1-.135-.242v-.001a.413.413 0 0 1 .015-.156l-.001.003a.876.876 0 0 1 .085-.194c.067-.118.168-.26.284-.408.27-.339.555-.641.864-.917l.007-.006.413.472a6.815 6.815 0 0 0-.791.839 2.657 2.657 0 0 0-.223.316l-.007.012c-.023.041-.027.056-.025.05 0-.002.008-.029.004-.072a.284.284 0 0 0-.111-.195l-.001-.001-.378.501zm1.117-1.921c1.483-1.32 3.18-1.737 5.318-1.345l-.113.617c-1.973-.361-3.467.021-4.787 1.197l-.417-.469zM5.152 6.08c1.282.318 2.709 1.034 4.003 1.994l-.373.504c-1.244-.922-2.598-1.596-3.781-1.889l.151-.609zm4.001 1.993c.531.388 1.21.883 1.512 1.107l-.373.504c-.301-.223-.977-.717-1.509-1.106l.37-.506zm1.514 1.107c.788.584 2.107 1.325 3.101 1.74l-.242.579c-1.037-.432-2.401-1.198-3.233-1.815l.373-.504zm3.103 1.74a9.5 9.5 0 0 1 .705.334c.099.053.19.105.264.153.063.041.148.1.205.171l-.489.392c.014.018.009.006-.056-.036a2.369 2.369 0 0 0-.202-.117l-.017-.008a8.842 8.842 0 0 0-.656-.311l.247-.577zm1.169.652c.053.063.08.135.096.186.018.056.031.119.042.186.021.133.036.309.048.529.023.441.031 1.096.031 2.02h-.627c0-.924-.009-1.564-.031-1.987a4.97 4.97 0 0 0-.044-.488l.003.025a.731.731 0 0 0-.022-.102l.001.005c-.006-.022-.004-.001.022.03l.481-.403zm.218 2.92c0 1.115.009 1.752.041 2.162.031.397.082.555.159.718l-.568.267c-.117-.248-.181-.485-.216-.935-.034-.439-.044-1.102-.044-2.211h.627zm.2 2.88c.179.38.402.637.671.801.271.166.615.254 1.064.254v.627c-.531 0-.996-.105-1.39-.346-.395-.241-.692-.602-.912-1.069l.567-.267zm1.735 1.055c.282 0 .503-.042.699-.128s.388-.226.597-.445l.455.433c-.25.262-.507.459-.799.587a2.31 2.31 0 0 1-.951.181v-.627zm1.299-.577c.122-.123.201-.22.26-.326.058-.104.105-.231.141-.42.073-.395.09-1.006.09-2.14h.627c0 1.114-.014 1.791-.1 2.255a1.958 1.958 0 0 1-.215.622l.005-.01a2.116 2.116 0 0 1-.36.459l-.447-.439zm.49-2.887c0-.634-.002-1.121.019-1.489.02-.359.063-.658.184-.885.138-.26.356-.387.612-.454.232-.061.533-.082.875-.11l.051.626c-.372.031-.602.048-.767.092-.14.036-.184.079-.218.142-.051.095-.092.27-.111.624-.019.345-.018.809-.018 1.453h-.627zm1.688-2.937c1.427-.127 3.201-.511 4.369-.936l.215.59c-1.225.446-3.053.84-4.528.971l-.056-.625zm4.367-.935c.307-.114.595-.21.812-.275a4.45 4.45 0 0 1 .277-.073c.035-.008.077-.014.115-.018l.032-.001c.02 0 .039.001.058.004h-.002a.322.322 0 0 1 .223.137l.001.001-.517.354a.304.304 0 0 0 .201.128h.002c.027.004.045.002.046.002l-.031.006a3.07 3.07 0 0 0-.227.06c-.201.06-.475.151-.772.261l-.218-.589zm1.477-.272a.364.364 0 0 1 .094.161l.001.002a.466.466 0 0 1 .014.103.84.84 0 0 1-.014.154 3.04 3.04 0 0 1-.091.365l.006-.021c-.078.26-.2.597-.339.954-.279.709-.646 1.528-.925 1.998l-.54-.321c.253-.425.605-1.206.88-1.906.137-.349.251-.668.322-.905.036-.12.058-.21.068-.268.006-.031.005-.04.005-.036 0 .002 0 .019.006.043a.27.27 0 0 0 .075.125l.438-.449zm-1.254 3.714c-.862 1.474-1.546 2.322-2.849 3.542l-.429-.458c1.261-1.18 1.906-1.981 2.736-3.401l.541.317zm-2.849 3.543c-1.897 1.775-4.499 3.291-7.147 4.198l-.203-.594c2.573-.882 5.096-2.355 6.922-4.063l.429.458zm-7.145 4.197-.943.329-.207-.592.943-.329.207.592zm-1.151.33-.931-.33.21-.591.931.329-.21.592zm-.927-.329c-2.834-.956-5.341-2.474-7.358-4.427l.436-.451c1.948 1.884 4.373 3.355 7.122 4.282l-.201.595zm-7.358-4.425c-2.56-2.456-3.917-5.076-4.253-8.184l.624-.067c.317 2.941 1.595 5.43 4.063 7.798l-.435.453zM1.476 9.665c-.063-.593-.046-1.384.019-2.08.033-.37.082-.698.147-1.02l-.01.06c.055-.266.125-.521.226-.686l.536.325c-.039.064-.094.224-.148.487-.051.25-.094.56-.127.894-.063.671-.077 1.417-.019 1.953l-.624.067zm.381-3.723a.389.389 0 0 1 .183-.157l.003-.001a.592.592 0 0 1 .135-.038l.004-.001c.083-.015.183-.021.286-.022.21-.003.483.013.781.043.596.058 1.324.173 1.902.312l-.147.61a14.223 14.223 0 0 0-1.817-.297 6.967 6.967 0 0 0-.709-.04h-.002c-.09.001-.151.006-.184.013-.018.003-.016.004-.004-.001.003-.002.067-.026.112-.104l-.541-.317z"/>
      <path d="M6.322.382C3.457.982 1.233 3.336.507 6.537.242 7.655.253 9.809.52 11.033c.592 2.718 1.909 5.131 3.989 7.226 1.862 1.883 3.493 3.024 6.08 4.213l1.353.636v8.579h1.451v-8.109l.363.106a1.524 1.524 0 0 0 .736-.002l-.01.002.363-.107v8.109h1.451v-8.591l1.293-.589c2.503-1.153 4.316-2.401 6.08-4.189 2.817-2.86 4.255-6.108 4.255-9.639.013-3.871-2.018-7.014-5.21-8.085-.677-.236-1.027-.271-2.309-.259-1.341.012-1.644.059-2.659.376-1.197.389-2.369 1.001-3.142 1.636l-.447.376-.653-.482C11.824 1.004 10.107.404 8.089.321c-.702-.023-1.5 0-1.765.059zm2.755 1.459c.508.094 1.197.294 1.559.435.774.317 2.067 1.129 2.574 1.613.786.741 1.004.729 1.898-.071 1.402-1.271 3.662-2.142 5.524-2.142 2.526 0 4.834 1.977 5.572 4.767.133.494.254 1.294.266 1.777.048 1.059.013 1.094-1.631 1.718-1.33.506-2.442.753-4.352.965-1.22.141-1.474.212-1.849.483-.774.576-.895 1-.895 3.401 0 1.801-.024 2.142-.205 2.33-.254.282-.701.27-1.004-.024-.229-.223-.241-.388-.241-2.766 0-2.636-.073-3.083-.568-3.613-.109-.117-.967-.577-1.897-1.035-1.052-.494-2.103-1.106-2.732-1.589C8.062 5.819 6.72 5.171 4.23 4.783a36.564 36.564 0 0 1-1.342-.235c-.109-.082.544-.918 1.136-1.436 1.402-1.248 2.998-1.648 5.053-1.271zM5.076 6.384c1.233.306 2.623 1 3.892 1.942.532.388 1.209.882 1.511 1.106.81.6 2.152 1.353 3.167 1.777.496.212.966.459 1.052.565.109.13.144.871.144 2.719 0 2.224.037 2.601.23 3.013.399.847 1.04 1.235 2.018 1.235.629 0 1.064-.188 1.523-.671.52-.529.58-.858.58-3.106 0-2.554-.024-2.507 1.402-2.625 1.45-.13 3.251-.518 4.448-.954.604-.223 1.124-.376 1.148-.341.133.13-.774 2.436-1.305 3.33-.846 1.448-1.511 2.271-2.792 3.472-1.862 1.741-4.424 3.236-7.035 4.131l-.943.329-.931-.329c-2.792-.941-5.258-2.436-7.241-4.355-2.514-2.413-3.831-4.966-4.158-7.991-.12-1.13.061-3.072.339-3.531.097-.165 1.825.011 2.949.282z"/>
    </symbol>
    <symbol id="telegram" viewBox="0 0 32 32">
      <path d="M32 16c0 8.837-7.163 16-16 16S0 24.837 0 16 7.163 0 16 0s16 7.163 16 16z"/>
      <path fill="#fff" d="m12.867 18.376-.317 4.169c.455 0 .651-.183.888-.401l2.13-1.901 4.414 3.018c.81.421 1.381.199 1.6-.696l2.897-12.673c.258-1.117-.433-1.554-1.221-1.28L6.226 14.698c-1.162.422-1.145 1.026-.198 1.301l4.355 1.264 10.114-5.907c.476-.295.909-.132.553.163l-8.182 6.856z"/>
    </symbol>
    <symbol id="logo" viewBox="0 0 127 32">
      <path fill="#fff" d="M31.36 16.32C31.36 24.98 24.483 32 16 32S.64 24.98.64 16.32 7.517.64 16 .64s15.36 7.02 15.36 15.68z"/>
      <path d="M11.849.561C4.444 2.804 0 8.635 0 16.003c0 6.022 3.091 11.277 8.179 13.904 2.64 1.345 3.027.384.579-1.474-1.738-1.409-2.061-2.05-2.061-4.421 0-1.666-.386-3.011-.966-3.524-1.158-.961-1.288-3.46-.128-4.357.45-.384.901-1.666.965-2.819.323-4.228 4.895-8.201 9.467-8.201s9.144 3.972 9.466 8.201c.064 1.153.515 2.435.966 2.819 1.158.897 1.03 3.396-.129 4.357-.579.513-.966 1.858-.966 3.524 0 2.371-.321 3.012-2.06 4.421-2.705 2.115-1.932 2.883 1.094 1.025 4.251-2.627 7.406-8.33 7.406-13.391 0-10.124-10.561-18.325-19.964-15.506z"/>
      <path d="M12.687 7.994c-1.16.513-2.125 1.154-2.125 1.538 0 .705 3.478 1.987 5.474 1.987s5.474-1.281 5.474-1.987c0-.768-3.993-2.499-5.603-2.499-.644.064-2.125.448-3.22.961zm33.164 3.332c-.966.256-1.158 1.089-1.158 5.702v5.382h4.572l-.193-5.574c-.193-5.83-.451-6.28-3.22-5.51zm7.535.32c-2.125 1.154-2.898 2.563-2.898 5.318 0 3.78 2.061 5.574 5.86 5.318 2.576-.192 2.833-.385 3.027-1.987s.064-1.73-1.932-1.602c-2.061.192-2.125.064-2.125-2.051s.129-2.243 1.997-2.05c1.545.128 2.125-.128 2.382-1.089.129-.641 0-1.538-.387-1.923-.901-.897-4.25-.897-5.924.064zm7.664.064c-.194.513-.258 3.012-.129 5.638l.193 4.742H65.3c3.864 0 4.186-.128 4.379-1.474.193-1.217-.064-1.409-2.06-1.409-1.288 0-2.319-.32-2.319-.641 0-.385.902-.641 1.932-.641 1.481 0 1.932-.256 1.932-1.281s-.451-1.281-1.932-1.281c-1.03 0-1.932-.32-1.932-.641 0-.385.837-.641 1.868-.641 1.804 0 3.027-1.409 2.254-2.627-.58-.961-7.985-.705-8.371.256zm12.943-.192c-2.125.833-2.962 2.307-3.027 4.998-.065 4.613 1.803 6.215 6.633 5.766 1.868-.128 2.189-.448 2.189-1.794 0-1.409-.257-1.602-2.061-1.409-1.546.128-2.125-.064-2.447-1.089-.58-1.987.644-3.588 2.705-3.588 1.224 0 1.868-.384 1.996-1.217.451-2.051-2.833-3.011-5.989-1.666zm7.921-.256c-.323.256-.515 2.883-.515 5.83v5.382l2.06-.192c1.61-.128 2.19-.577 2.512-1.795l.386-1.602.515 1.73c.387 1.474.837 1.795 2.512 1.795 2.769 0 3.091-.449 1.932-2.691-.708-1.41-.837-2.115-.322-2.627.837-.833.902-3.652.129-4.87-.644-1.025-8.371-1.858-9.208-.961zm5.28 3.46c0 .705-.257 1.281-.644 1.281-.322 0-.644-.576-.644-1.281s.322-1.282.644-1.282c.387 0 .644.577.644 1.282zm6.247-3.396c-.258.192-.451 2.819-.451 5.766v5.318h4.186c4.057 0 4.186-.064 4.186-1.602 0-1.346-.322-1.602-1.932-1.602-1.03 0-1.932-.32-1.932-.641 0-.385.708-.641 1.61-.641 1.159 0 1.61-.321 1.61-1.282s-.451-1.281-1.61-1.281c-.902 0-1.61-.32-1.61-.641 0-.384.902-.641 1.932-.641 1.61 0 1.932-.256 1.932-1.602 0-1.538-.193-1.602-3.735-1.602-2.061 0-3.992.192-4.186.448zm13.009-.064c-1.16.32-4.122 8.842-3.542 10.252.515 1.281 3.413 1.153 4.186-.192.579-1.089.644-1.089 1.803 0 1.482 1.281 4.701 1.474 4.701.256 0-.384-.644-2.947-1.482-5.574-1.288-4.228-1.674-4.805-3.027-4.933-.902 0-2.061.064-2.64.192zm1.803 5.83c-.193.641-.322.256-.322-.769 0-1.089.129-1.538.322-1.153.129.448.129 1.345 0 1.922zm7.47-5.766c-.58.192-.837 1.986-.837 5.702v5.382h1.868c1.61 0 1.932-.321 2.189-1.795.257-1.666.257-1.666.772-.32.258.833.902 1.474 1.352 1.474.515 0 1.224-.641 1.546-1.474.515-1.346.58-1.346.58.384.065 1.602.257 1.795 2.061 1.602l1.996-.192.065-5.318c.129-4.933.064-5.318-1.288-5.638-2.061-.512-3.799.705-4.379 3.076l-.451 2.115-.708-2.243c-.902-3.012-2.254-3.78-4.765-2.755zm-106.707.641c-.193.256-.387 1.089-.387 1.922 0 1.474.064 1.474 7.406 1.474 7.341 0 7.405 0 7.405-1.474 0-2.179-.579-2.435-2.64-1.409-2.319 1.217-7.213 1.217-9.531 0-1.03-.513-1.997-.705-2.254-.513zm-1.868 5.702c-1.03 1.089.708 1.538 5.731 1.538h5.409v2.243c0 1.217.322 2.243.644 2.243.386 0 .644-.961.644-2.179 0-2.115.129-2.243 2.576-2.435 1.416-.128 2.576-.512 2.576-.832 0-.705-16.872-1.282-17.581-.577z"/>
      <path d="M8.629 23.308c0 3.524 1.224 4.229 7.406 4.229s7.405-.705 7.405-4.229c0-1.538-.322-2.179-.966-2.179-.579 0-.965.577-.965 1.538 0 3.588-4.895 3.908-5.603.384-.322-1.858-.515-1.922-3.799-1.922H8.629v2.179zm3.993 7.24c.387 2.051 6.955 1.859 6.955-.128 0-.705-.837-.961-3.606-.961-3.027 0-3.542.192-3.348 1.089z"/>
    </symbol>
    <symbol id="house" viewBox="0 0 35 32">
      <path d="M34.473 15.38a1.482 1.482 0 0 0-.133-2.217l-.003-.002L18.736.425A2.037 2.037 0 0 0 17.486 0c-.489 0-.938.171-1.291.457l.004-.003L.545 13.836a1.47 1.47 0 0 0-.077 2.222l.001.001.393.378c.649.634 1.702.71 2.348.169l1.169-.977v14.31c0 .876.765 1.588 1.705 1.588h6.1c.943 0 1.705-.713 1.705-1.588v-10.01h7.782v10.046c0 .856.694 1.551 1.551 1.551l.052-.001h-.003 6.467c.94 0 1.702-.71 1.702-1.588V15.834s.326.262.724.591c.396.326 1.233.064 1.865-.585l.445-.457z"/>
    </symbol>
    <symbol id="github" viewBox="0 0 32 32">
      <path d="M32 16c0 8.837-7.163 16-16 16S0 24.837 0 16 7.163 0 16 0s16 7.163 16 16z"/>
      <path fill="#fff" d="M16 6.588c-5.17 0-9.412 4.242-9.412 9.412 0 4.411 3.096 8.419 7.206 9.412v-3.113a2.314 2.314 0 0 1-1.196-.031c-.556-.164-1.008-.535-1.344-1.099-.214-.36-.593-.753-.988-.724l-.097-1.098c.856-.073 1.594.521 2.033 1.258.196.328.421.52.709.605.278.083.577.043.925-.08.088-.697.408-.958.649-1.327-2.452-.365-3.429-1.666-3.816-2.692-.514-1.364-.238-3.066.67-4.143.018-.021.05-.075.038-.113-.417-1.259.09-2.3.109-2.41.481.141.559-.143 2.089.786l.264.159c.111.066.075.028.186.019a7.787 7.787 0 0 1 1.97-.276h.006a8.021 8.021 0 0 1 2.002.284l.086.009c-.008-.002.024-.006.075-.037 1.911-1.158 1.842-.779 2.355-.946.019.111.519 1.169.106 2.411-.056.171 1.656 1.739.708 4.256-.388 1.026-1.365 2.328-3.816 2.693.314.48.692.734.69 1.722v3.886c4.109-.993 7.206-5 7.206-9.412 0-5.17-4.242-9.412-9.412-9.412z"/>
    </symbol>
    <symbol id="facebook" viewBox="0 0 32 32">
      <path d="M16 32c8.837 0 16-7.163 16-16S24.837 0 16 0 0 7.163 0 16s7.163 16 16 16z"/>
      <path fill="#fff" d="M20.446 15.981h-2.611V25.6H13.88v-9.619H12v-3.379h1.88v-2.187c0-1.564.739-4.014 3.991-4.014l2.929.012v3.281h-2.125c-.348 0-.839.176-.839.922v1.989h2.955l-.345 3.377z"/>
    </symbol>
    <symbol id="close" viewBox="0 0 32 32">
      <path d="M.536 1.511 29.894 32l1.568-1.511L2.108 0 .533 1.511z"/>
      <path d="M1.511 31.464 32 2.103 30.489.535 0 29.893l1.511 1.568z"/>
    </symbol>
    <symbol id="burger" viewBox="0 0 49 32">
      <path d="M0 2.462h49.231V0H0v2.462zm0 14.769h49.231v-2.462H0v2.462zM0 32h49.231v-2.462H0V32z"/>
    </symbol>
    <symbol id="arrow-right" viewBox="0 0 19 32">
      <path d="M5.462.938A3.2 3.2 0 1 0 .936 5.462l.001.001L5.462.938zM16 16l2.262 2.262c.579-.579.937-1.379.937-2.262s-.358-1.683-.937-2.262L16 16zM.938 26.538a3.2 3.2 0 1 0 4.524 4.526l.001-.001-4.525-4.525zm0-21.076 12.8 12.8 4.525-4.525-12.8-12.8L.938 5.462zm12.8 8.276-12.8 12.8 4.525 4.525 12.8-12.8-4.525-4.525z"/>
    </symbol>
    <symbol id="advantage-02" viewBox="0 0 32 32">
      <path d="M29.626 21.411c-1.292-.458-2.381-.344-3.242.018.145-.877.47-1.832 1.169-2.481a1.065 1.065 0 1 0-1.448-1.561c-1.229 1.14-1.706 2.749-1.874 4.081a3.929 3.929 0 0 0-1.035-.308l-.023-.003 1.89-9.83a1.064 1.064 0 0 0-1.045-1.266h-.205c.094-.5.141-.997.138-1.47-.016-1.994-.903-3.495-2.374-4.017-1.409-.5-2.589-.35-3.507.066.146-.976.495-2.063 1.282-2.794A1.065 1.065 0 1 0 17.904.285c-1.32 1.226-1.815 2.966-1.981 4.387-.735-.348-1.644-.526-2.709-.33-1.094-1.571-2.612-2.295-4.09-1.941-1.451.348-2.358 1.115-2.9 1.962-.41-.899-.712-2.001-.452-3.036A1.065 1.065 0 0 0 3.708.799l-.002.007c-.439 1.746.095 3.475.73 4.758-1.016.138-2.118.65-3.049 1.866-.578.755-.773 1.698-.596 2.7a1.066 1.066 0 0 0-.672 1.204l-.001-.007 3.809 19.809c.096.502.535.864 1.046.864H20.21c.51 0 .949-.362 1.046-.864l.037-.195c.287.198.595.364.927.486 1.267.472 2.447.278 3.044.118.316.084.795.179 1.364.179.506 0 1.084-.075 1.68-.297 2.36-.879 3.615-3.839 3.596-6.178-.015-1.904-.865-3.34-2.275-3.839zm-6.951-9.22c-.491 4.705-4.452 7.909-9.971 7.909s-9.481-3.204-9.971-7.909h19.942zm-6.643-4.676a1.048 1.048 0 0 0 1.862 0 2.66 2.66 0 0 1 .76-.771l.01-.006c.629-.408 1.35-.46 2.203-.157.851.301.952 1.518.956 2.027a5.74 5.74 0 0 1-.19 1.453h-7.126c.236-1.19.094-2.492-.289-3.669.392.022.751.149 1.055.351l-.008-.005c.31.205.567.465.763.767l.006.01zM3.077 8.724c.55-.719 1.183-1.069 1.933-1.069h.002c.57 0 1.016.207 1.066.232.341.189.749.172 1.078-.037.332-.211.51-.592.481-.983-.006-.077-.115-1.894 1.983-2.397.877-.211 1.626.754 1.906 1.178.808 1.221 1.222 3.108.777 4.413H2.955c-.141-.443-.179-.943.122-1.336zM5.852 29.87 3.741 18.893c.138.132.28.262.428.388 2.208 1.901 5.239 2.948 8.535 2.948s6.328-1.047 8.535-2.948l.152-.134-.431 2.243-.061.02c-1.411.5-2.261 1.935-2.276 3.839-.01 1.165.297 2.483.898 3.622l-.192.998H5.852zm21.71-.438c-.943.351-1.881.017-1.916.004a1.034 1.034 0 0 0-.775.003l.007-.003c-.01.004-.96.352-1.917-.004-1.338-.499-2.223-2.556-2.21-4.166.004-.465.095-1.578.858-1.849.279-.107.601-.17.937-.175h.002c1.107 0 1.658.812 1.782 1.024a1.046 1.046 0 0 0 1.862 0c.156-.265.977-1.468 2.721-.849.763.271.854 1.383.858 1.85.013 1.609-.872 3.667-2.21 4.165z"/>
    </symbol>
    <symbol id="ellipses" viewBox="0 0 139 32">
      <path d="M85.333 16c0 8.837-7.163 16-16 16s-16-7.163-16-16c0-8.837 7.163-16 16-16s16 7.163 16 16z"></path>
      <path d="M32 16c0 8.837-7.163 16-16 16s-16-7.163-16-16c0-8.837 7.163-16 16-16s16 7.163 16 16z"></path>
      <path d="M138.667 16c0 8.837-7.163 16-16 16s-16-7.163-16-16c0-8.837 7.163-16 16-16s16 7.163 16 16z"></path>
</symbol>
    <symbol id="advantage-01" viewBox="0 0 21 32">
      <path d="M2.333.144c-.349.188-.552.563-.552 1.006.006.813.209 1.556.614 2.2l.178.294-.338.381c-.381.425-.473.581-.644 1.088-.141.412-.154 1.162-.031 1.581.429 1.437 1.854 2.269 3.247 1.9.473-.125.762-.282 1.203-.657l.375-.312.35.175c.196.1.528.243.742.324l.381.138v.7c0 1.106.227 1.763.81 2.356s1.498.9 2.291.762c.564-.1 1.117-.381 1.491-.762.584-.594.811-1.251.811-2.356v-.7l.387-.138a9.56 9.56 0 0 0 .737-.325l.349-.175.374.312c.442.375.731.531 1.203.657 1.394.369 2.819-.463 3.248-1.9.123-.419.111-1.169-.031-1.581-.172-.507-.264-.663-.644-1.088l-.337-.381.178-.294c.405-.643.608-1.388.614-2.2 0-.444-.204-.819-.553-1.006l-.264-.144H2.596l-.264.144zm14.736 1.955c0 .019-.179.313-.399.662-.651 1.032-.626 1.256.239 2.17.314.331.602.662.645.737.233.463-.234 1.038-.749.919-.124-.026-.394-.243-.787-.631-.786-.775-1.056-.863-1.658-.518-.694.399-1.578.806-2.008.924-.608.175-.817.307-.976.637-.129.256-.141.363-.141 1.363 0 1.231-.05 1.431-.399 1.6-.252.125-.301.125-.553 0-.35-.169-.399-.369-.399-1.6 0-1-.013-1.107-.135-1.363-.166-.324-.374-.462-.982-.637-.528-.15-1.308-.493-1.738-.774-.405-.262-.762-.363-1.043-.313-.185.038-.369.181-.86.662-.405.394-.694.625-.817.65-.509.119-.976-.463-.742-.919.043-.075.332-.406.644-.737.865-.913.89-1.137.239-2.169-.221-.349-.399-.643-.399-.662 0-.025 2.929-.037 6.508-.037s6.508.013 6.508.037zM.485 13.206c-.314.212-.485.512-.485.844 0 .225 3.119 16.925 3.229 17.275.055.194.282.425.522.55.227.125.387.125 6.809.125s6.582 0 6.809-.125c.239-.125.467-.356.522-.55.111-.35 3.229-17.05 3.229-17.275 0-.331-.172-.631-.485-.844l-.209-.144H.694l-.209.144zm18.21 2.275c-.061.5-.418 1.587-.682 2.081-1.283 2.375-3.715 3.819-6.729 3.987-2.278.132-4.205-.331-5.82-1.393a7.057 7.057 0 0 1-2.247-2.402l-.018-.035c-.307-.544-.712-1.713-.774-2.238l-.043-.356h16.356l-.043.356zM4.39 21.919c2.634 1.775 6.569 2.244 9.885 1.169a10.708 10.708 0 0 0 3.18-1.687c.276-.219.294-.219.264-.082-.019.081-.381 1.994-.804 4.244s-.78 4.156-.798 4.232l-.031.143H5.034l-.031-.143c-.018-.075-.374-1.981-.798-4.232s-.786-4.163-.804-4.243c-.031-.138-.013-.138.264.081.16.125.491.356.724.518z"/>
    </symbol>
  </defs>
</svg>
