<?xml version="1.0" standalone="no"?>
<!DOCTYPE svg PUBLIC "-//W3C//DTD SVG 20010904//EN"
 "http://www.w3.org/TR/2001/REC-SVG-20010904/DTD/svg10.dtd">
<svg version="1.0" xmlns="http://www.w3.org/2000/svg"
 width="512.000000pt" height="512.000000pt" viewBox="0 0 512.000000 512.000000"
 preserveAspectRatio="xMidYMid meet">
<metadata>
Created by potrace 1.14, written by Peter Selinger 2001-2017
</metadata>
<g transform="translate(0.000000,512.000000) scale(0.100000,-0.100000)"
fill="#000000" stroke="none">
<path d="M2335 5114 c-16 -2 -70 -9 -120 -15 -253 -32 -560 -137 -868 -296
-611 -318 -1059 -856 -1242 -1495 -160 -556 -135 -1172 71 -1706 210 -546 621
-1006 1131 -1264 157 -80 278 -117 326 -99 52 20 28 91 -61 184 -21 21 -90 81
-154 133 -292 237 -331 317 -348 714 -14 331 -46 449 -156 572 -111 122 -151
240 -142 411 7 125 33 188 110 273 96 107 147 243 168 452 18 180 55 305 138
466 204 397 631 721 1092 827 111 26 336 35 453 20 339 -45 668 -214 932 -476
124 -125 202 -228 276 -369 85 -161 116 -272 149 -529 11 -93 49 -226 81 -290
11 -20 46 -67 79 -102 79 -88 102 -148 108 -285 7 -168 -30 -276 -131 -387
-64 -71 -78 -92 -105 -164 -38 -103 -54 -208 -63 -429 -5 -118 -15 -245 -23
-283 -32 -143 -101 -234 -322 -418 -78 -65 -160 -141 -183 -168 -142 -170 -37
-202 224 -68 661 339 1177 1091 1312 1912 25 153 25 495 -1 650 -63 387 -186
703 -396 1018 -119 178 -201 278 -350 427 -411 411 -891 663 -1447 761 -113
20 -456 35 -538 23z"/>
<path d="M2455 3979 c-142 -29 -329 -94 -475 -165 -195 -95 -290 -167 -290
-222 0 -74 306 -216 610 -284 86 -19 134 -23 265 -23 131 0 179 4 265 23 313
70 610 210 610 287 0 30 -77 101 -169 154 -194 114 -498 221 -691 244 -19 3
-75 -4 -125 -14z"/>
<path d="M1458 3214 c-52 -15 -99 -313 -68 -426 31 -112 174 -127 1175 -127
804 0 1024 11 1115 57 61 32 72 67 67 222 -3 113 -7 144 -26 187 -52 118 -131
117 -391 -3 -228 -105 -413 -139 -765 -139 -348 0 -530 32 -752 134 -162 74
-300 111 -355 95z"/>
<path d="M1328 2330 c-53 -5 -114 -14 -136 -20 -67 -17 -106 -81 -86 -135 10
-24 90 -61 174 -79 161 -35 257 -39 950 -45 l695 -6 6 -270 c6 -280 14 -335
56 -408 26 -43 60 -43 89 1 34 49 44 109 54 313 4 102 13 204 19 227 16 57 53
97 107 116 45 15 81 21 335 51 149 17 291 56 338 92 l34 26 -21 18 c-47 38
-391 74 -1032 110 -247 13 -1453 20 -1582 9z"/>
<path d="M1383 1463 c5 -300 13 -355 64 -459 29 -61 109 -141 169 -172 68 -35
198 -70 315 -87 195 -27 597 -39 898 -26 473 20 648 61 776 182 99 93 134 198
142 425 9 226 -20 352 -89 394 -68 41 -145 12 -186 -72 -18 -35 -25 -73 -32
-160 -16 -218 -87 -336 -250 -412 -55 -26 -79 -31 -163 -34 -122 -5 -210 20
-297 84 -104 76 -159 183 -205 396 -18 86 -44 132 -93 165 -63 42 -105 46
-591 50 l-463 5 5 -279z"/>
<path d="M2268 400 c-125 -10 -207 -31 -234 -61 -26 -29 -23 -105 6 -158 41
-72 130 -121 285 -157 121 -28 387 -26 510 4 194 49 295 126 295 226 0 71 -63
112 -210 136 -87 14 -519 21 -652 10z"/>
</g>
</svg>
